<?xml version="1.0" encoding="utf-8"?>
<!-- Generator: Adobe Illustrator 23.0.5, SVG Export Plug-In . SVG Version: 6.00 Build 0)  -->
<svg version="1.1" id="Capa_1" xmlns="http://www.w3.org/2000/svg" xmlns:xlink="http://www.w3.org/1999/xlink" x="0px" y="0px"
	 viewBox="0 0 2490 2500" style="enable-background:new 0 0 2490 2500;" xml:space="preserve">
<style type="text/css">
	.st0{fill:#00ADEF;}
</style>
<path class="st0" d="M0,353.8L504.8,285c271.3-36.9,512.9,173.9,513,447.7l0,14.3c0.1,248.7-200.7,450.8-449.5,452.2l-113.3,0.6
	C204.6,1201.4,0.7,998.9,0.4,748.4L0,353.8L0,353.8z M1017.1,1309.8l0.4,463.5c0.2,274.3-241.9,485.6-513.6,448.2l-112.6-15.5
	c-223.8-30.8-390.5-222-390.5-447.8l0,0c0-250.8,204.2-453.7,455-452.1L1017.1,1309.8L1017.1,1309.8z M1140.5,197.1l831.9-121.4
	c272.8-39.8,517.3,171.7,517.3,447.3v212.8c0,248.3-200.2,450.1-448.5,452l-445.1,3.5c-251.1,2-455.6-201-455.6-452V197.1
	L1140.5,197.1z M2489.9,1770.5l-0.1,207.1c-0.1,274.7-243.2,485.9-515.2,447.5l-446-62.9c-222.7-31.4-388.4-221.8-388.9-446.8
	l-0.3-144.9c-0.5-250.3,202.5-453.3,452.8-452.9l446.3,0.7C2288,1318.7,2489.9,1521.1,2489.9,1770.5z"/>
</svg>
